<svg width="6.3073mm" height="6.3012mm" version="1.1" viewBox="0 0 6.3073 6.3012" xmlns="http://www.w3.org/2000/svg">
 <g transform="translate(-8.0731 -114.22)">
  <g transform="translate(-169.29 -.63157)">
   <g transform="matrix(.012478 0 0 .012072 177.69 114.86)">
    <circle cx="228.27" cy="228.27" r="124" fill="#fceba2"/>
    <ellipse cx="228.27" cy="228.27" rx="151.17" ry="150.92" fill="#fceba2" stroke-width="1.2181"/>
    <circle cx="228.27" cy="228.27" r="95.142" fill="#ffde55"/>
    <path d="m401.04 228.27 42.467-57.07c2.903-3.9 3.734-8.966 2.232-13.59-1.503-4.624-5.153-8.233-9.794-9.683l-67.901-21.209 0.811-71.132c0.056-4.862-2.249-9.449-6.182-12.307-3.934-2.858-9.009-3.633-13.615-2.077l-67.399 22.753-41.153-58.023c-2.813-3.966-7.373-6.322-12.235-6.322s-9.422 2.356-12.235 6.322l-41.154 58.024-67.4-22.753c-4.607-1.555-9.682-0.781-13.615 2.077-3.933 2.858-6.238 7.445-6.182 12.307l0.812 71.132-67.901 21.209c-4.641 1.45-8.291 5.059-9.793 9.683-1.503 4.624-0.671 9.689 2.232 13.59l42.467 57.07-42.467 57.07c-2.903 3.9-3.734 8.966-2.232 13.59s5.153 8.233 9.793 9.683l67.901 21.208-0.812 71.132c-0.056 4.862 2.249 9.449 6.182 12.307 3.934 2.857 9.007 3.632 13.615 2.077l67.4-22.753 41.154 58.024c2.813 3.966 7.373 6.322 12.235 6.322s9.422-2.356 12.235-6.322l41.154-58.024 67.399 22.753c4.606 1.555 9.681 0.781 13.615-2.077 3.933-2.858 6.238-7.445 6.182-12.306l-0.811-71.133 67.901-21.208c4.641-1.45 8.291-5.059 9.794-9.683 1.502-4.624 0.671-9.689-2.232-13.59zm-172.77 145.97c-80.487 0-145.97-65.481-145.97-145.97 0-80.487 65.481-145.97 145.97-145.97s145.97 65.48 145.97 145.97c0 80.487-65.481 145.97-145.97 145.97z" fill="#fc0"/>
   </g>
   <rect x="177.36" y="117.62" width="6.3073" height="3.5333" fill="#fff" stroke-width=".26458"/>
   <g transform="matrix(.58614 0 0 .59038 72.426 43.432)" stroke-width=".26458">
    <path class="cls-1" d="m186.81 125.87v3.5586a0.53075 0.53075 0 0 1-0.52917 0.52917h-3.7042a0.53075 0.53075 0 0 1-0.52917-0.52917v-3.5586l2.3812-1.733z" fill="#e9afdd"/>
    <path class="cls-2" d="m186.81 125.87v2.2357a0.53075 0.53075 0 0 1-0.52917 0.52917h-3.7042a0.53075 0.53075 0 0 1-0.52917-0.52917v-2.2357l2.3812-1.733z" fill="#eed7f4"/>
    <path class="cls-3" d="m185.24 127.58v2.3812h-1.5875v-2.3812a0.26458 0.26458 0 0 1 0.26458-0.26459h1.0583a0.26458 0.26458 0 0 1 0.26458 0.26459z" fill="#d35fbc"/>
    <path class="cls-4" d="m185.24 127.58v1.0583h-1.5875v-1.0583a0.26458 0.26458 0 0 1 0.26458-0.26459h1.0583a0.26458 0.26458 0 0 1 0.26458 0.26459z" fill="#ddafe9"/>
    <path class="cls-5" d="m187.34 126.19a0.26458 0.26458 0 0 1-0.15531-0.0505l-2.7551-2.0037-2.7548 2.0037a0.26461 0.26461 0 0 1-0.31115-0.4281l2.9104-2.1167a0.26458 0.26458 0 0 1 0.31115 0l2.9104 2.1167a0.26458 0.26458 0 0 1-0.15557 0.47863z" fill="#660080"/>
   </g>
  </g>
 </g>
</svg>
